<?xml version="1.0" encoding="UTF-8"?>
<svg xmlns="http://www.w3.org/2000/svg" width="279.4mm" height="215.9mm" viewBox="0 0 279.4 215.9">
  <rect width="100%" height="100%" fill="white"/>
  <text x="139.7" y="10" text-anchor="middle" font-size="4" font-family="monospace">
    Checkerboard Calibration Pattern — 9x6 inner corners, 25mm squares
  </text>
  <rect x="27.19999999999999" y="32.95" width="25" height="25" fill="black"/>
  <rect x="77.19999999999999" y="32.95" width="25" height="25" fill="black"/>
  <rect x="127.19999999999999" y="32.95" width="25" height="25" fill="black"/>
  <rect x="177.2" y="32.95" width="25" height="25" fill="black"/>
  <rect x="227.2" y="32.95" width="25" height="25" fill="black"/>
  <rect x="52.19999999999999" y="57.95" width="25" height="25" fill="black"/>
  <rect x="102.19999999999999" y="57.95" width="25" height="25" fill="black"/>
  <rect x="152.2" y="57.95" width="25" height="25" fill="black"/>
  <rect x="202.2" y="57.95" width="25" height="25" fill="black"/>
  <rect x="27.19999999999999" y="82.95" width="25" height="25" fill="black"/>
  <rect x="77.19999999999999" y="82.95" width="25" height="25" fill="black"/>
  <rect x="127.19999999999999" y="82.95" width="25" height="25" fill="black"/>
  <rect x="177.2" y="82.95" width="25" height="25" fill="black"/>
  <rect x="227.2" y="82.95" width="25" height="25" fill="black"/>
  <rect x="52.19999999999999" y="107.95" width="25" height="25" fill="black"/>
  <rect x="102.19999999999999" y="107.95" width="25" height="25" fill="black"/>
  <rect x="152.2" y="107.95" width="25" height="25" fill="black"/>
  <rect x="202.2" y="107.95" width="25" height="25" fill="black"/>
  <rect x="27.19999999999999" y="132.95" width="25" height="25" fill="black"/>
  <rect x="77.19999999999999" y="132.95" width="25" height="25" fill="black"/>
  <rect x="127.19999999999999" y="132.95" width="25" height="25" fill="black"/>
  <rect x="177.2" y="132.95" width="25" height="25" fill="black"/>
  <rect x="227.2" y="132.95" width="25" height="25" fill="black"/>
  <rect x="52.19999999999999" y="157.95" width="25" height="25" fill="black"/>
  <rect x="102.19999999999999" y="157.95" width="25" height="25" fill="black"/>
  <rect x="152.2" y="157.95" width="25" height="25" fill="black"/>
  <rect x="202.2" y="157.95" width="25" height="25" fill="black"/>
  <text x="139.7" y="210.9" text-anchor="middle" font-size="3" font-family="monospace">
    Print at 100% scale (no fit-to-page). Verify: each square should measure exactly 25mm.
  </text>
</svg>